<?xml version="1.0" encoding="utf-8" ?><svg xmlns="http://www.w3.org/2000/svg" xmlns:xlink="http://www.w3.org/1999/xlink" width="768" height="1344" viewBox="0 0 768 1344"><defs><linearGradient id="gradient_0" gradientUnits="userSpaceOnUse" x1="363.36911" y1="1119.6942" x2="397.87271" y2="663.88232"><stop offset="0" stop-color="#032118"/><stop offset="1" stop-color="#3D4A6D"/></linearGradient></defs><path fill="url(#gradient_0)" d="M0 0L768 0L768 650.099L768 691.304L768 769.227L768 802.551L768 888.824L768 1012.55L768 1344L0 1344L0 1018.61L0 879.178L0 771.617L0 760.061L0 756.876L0 698.37L0 640.861L0 0Z"/><defs><linearGradient id="gradient_1" gradientUnits="userSpaceOnUse" x1="359.59216" y1="-22.369198" x2="408.40286" y2="672.13855"><stop offset="0" stop-color="#0A0B28"/><stop offset="1" stop-color="#2E3A5A"/></linearGradient></defs><path fill="url(#gradient_1)" d="M0 0L768 0L768 650.099C737.59 631.307 697.411 638.786 663.923 643.266C646.455 645.596 628.97 647.787 611.467 649.839C546.026 657.627 474.842 664.306 408.93 663.952C301.875 663.378 194.655 638.919 87.3264 636.359C63.082 635.78 23.6199 635.403 0 640.861L0 0Z"/><path fill="#77777A" d="M553.728 332.822C611.056 327.545 661.779 369.798 666.932 427.122C672.085 484.447 629.711 535.065 572.361 540.091C515.189 545.101 464.75 502.897 459.612 445.75C454.475 388.603 496.579 338.084 553.728 332.822Z"/><path fill="#F7F1D2" d="M559.172 341.711C610.033 339.372 653.193 378.628 655.659 429.471C658.125 480.314 618.966 523.56 568.117 526.151C517.09 528.751 473.648 489.435 471.173 438.414C468.699 387.393 508.133 344.059 559.172 341.711Z"/><path fill="#F7F1D2" d="M522.035 104.748C523.497 104.357 525.019 105.136 525.555 106.552C526.091 107.967 525.468 109.559 524.113 110.234C523.107 110.736 521.902 110.622 521.008 109.94C520.114 109.258 519.686 108.127 519.904 107.024C520.122 105.921 520.949 105.038 522.035 104.748Z"/><path fill="#F7F1D2" d="M373.157 129.036C374.672 128.802 376.112 129.773 376.462 131.265C376.813 132.757 375.955 134.267 374.495 134.731C373.444 135.066 372.294 134.783 371.519 133.999C370.744 133.215 370.473 132.063 370.818 131.016C371.164 129.969 372.067 129.204 373.157 129.036Z"/><path fill="#F7F1D2" d="M251.109 249.696C252.055 249.112 253.25 249.114 254.194 249.703C255.138 250.291 255.666 251.363 255.558 252.47C255.45 253.576 254.723 254.526 253.683 254.92C252.273 255.454 250.688 254.83 250.022 253.478C249.355 252.126 249.826 250.488 251.109 249.696Z"/><path fill="#F7F1D2" d="M720.375 102.067C721.805 101.36 723.537 101.929 724.27 103.346C725.002 104.762 724.465 106.504 723.062 107.263C722.131 107.765 721.001 107.727 720.107 107.161C719.213 106.596 718.694 105.592 718.749 104.536C718.805 103.48 719.426 102.536 720.375 102.067Z"/><path fill="#F7F1D2" d="M152.936 210.28C153.837 209.713 154.975 209.681 155.907 210.197C156.838 210.713 157.415 211.695 157.412 212.759C157.409 213.824 156.827 214.802 155.892 215.313C154.508 216.07 152.772 215.59 151.973 214.23C151.174 212.869 151.6 211.12 152.936 210.28Z"/><path fill="#F7F1D2" d="M174.642 90.2358C175.545 89.6294 176.71 89.5753 177.666 90.0956C178.622 90.6158 179.209 91.624 179.189 92.7116C179.17 93.7993 178.547 94.7859 177.574 95.2717C176.196 95.9594 174.52 95.4589 173.746 94.1283C172.971 92.7976 173.363 91.0941 174.642 90.2358Z"/><path fill="#F7F1D2" d="M621.735 58.7911C623.141 58.1607 624.795 58.7402 625.5 60.1104C626.205 61.4807 625.715 63.1629 624.384 63.9402C623.458 64.4815 622.308 64.4669 621.395 63.9022C620.483 63.3375 619.956 62.3151 620.028 61.2445C620.099 60.1739 620.756 59.2301 621.735 58.7911Z"/><path fill="#F7F1D2" d="M693.382 176.941C694.215 176.312 695.323 176.182 696.279 176.603C697.235 177.024 697.888 177.929 697.986 178.968C698.084 180.008 697.611 181.019 696.751 181.61C695.461 182.497 693.699 182.192 692.783 180.923C691.867 179.653 692.133 177.885 693.382 176.941Z"/><path fill="#F7F1D2" d="M537.069 247.123C538.479 246.551 540.09 247.184 540.731 248.563C541.372 249.943 540.818 251.582 539.472 252.29C538.54 252.78 537.414 252.718 536.543 252.127C535.671 251.536 535.196 250.514 535.306 249.467C535.416 248.421 536.094 247.519 537.069 247.123Z"/><path fill="#F7F1D2" d="M60.0056 175.609C61.2481 174.692 62.9962 174.936 63.939 176.159C64.8817 177.382 64.673 179.135 63.4693 180.102C62.6683 180.746 61.5817 180.907 60.6287 180.522C59.6757 180.137 59.0053 179.267 58.876 178.248C58.7467 177.229 59.1788 176.219 60.0056 175.609Z"/><path fill="#F7F1D2" d="M287.647 185.423C289.083 184.831 290.727 185.504 291.336 186.931C291.945 188.359 291.292 190.011 289.871 190.637C288.937 191.048 287.854 190.925 287.035 190.316C286.216 189.706 285.789 188.704 285.916 187.691C286.042 186.679 286.704 185.812 287.647 185.423Z"/><defs><linearGradient id="gradient_2" gradientUnits="userSpaceOnUse" x1="391.96875" y1="997.00861" x2="375.61206" y2="1358.2834"><stop offset="0" stop-color="#10132C"/><stop offset="1" stop-color="#102D2C"/></linearGradient></defs><path fill="url(#gradient_2)" d="M660.858 1068.99C664.384 1063.07 668.487 1057.52 673.107 1052.42C698.85 1024.1 730.968 1014.36 768 1012.55L768 1344L0 1344L0 1018.61C48.3767 1017.34 70.0189 1031.11 99.4264 1067.42L98.469 1069.35C100.702 1075.41 102.638 1077.25 103.898 1083.98C104.814 1084.25 114.024 1081.81 116.148 1081.53C137.999 1078.71 150.38 1088.39 163.179 1104.54C163.252 1104.63 176.516 1103.67 178.597 1103.74C179.394 1098.39 181.791 1082.69 184.787 1078.93C188.738 1078.44 200.535 1079.48 205.046 1079.82L242.462 1082.78C269.702 1084.54 296.986 1085.55 324.283 1085.81C361.301 1085.9 398.316 1085.01 435.288 1083.15C464.038 1081.91 492.576 1080.92 521.224 1078.12C523.07 1077.94 525.624 1078.05 527.397 1078.64C530.782 1083.59 536.452 1121.82 538.176 1130.8C541.931 1130.32 542.699 1130.26 546.408 1130.84C547.691 1131.05 548.445 1131.28 549.717 1130.97C553.02 1130.28 552.727 1130.22 556.297 1131.78C557.48 1132.14 558.458 1132.55 559.674 1132.44C561.253 1132.46 562.087 1132.65 563.409 1131.91C565.264 1124.75 566.613 1128.2 567.952 1123.94C569.298 1122.93 572.614 1119.44 574.074 1118.07C578.674 1113.8 583.828 1110.16 589.397 1107.27C607.996 1097.7 627.306 1097.86 646.841 1104.09C650.492 1090 653.814 1081.84 660.858 1068.99Z"/><path fill="#163235" d="M178.597 1103.74C179.394 1098.39 181.791 1082.69 184.787 1078.93C188.738 1078.44 200.535 1079.48 205.046 1079.82L242.462 1082.78C269.702 1084.54 296.986 1085.55 324.283 1085.81C361.301 1085.9 398.316 1085.01 435.288 1083.15C464.038 1081.91 492.576 1080.92 521.224 1078.12C523.07 1077.94 525.624 1078.05 527.397 1078.64C530.782 1083.59 536.452 1121.82 538.176 1130.8C536.132 1132.88 534.122 1131.46 529.92 1133C507.932 1141.02 494.719 1153.92 489.181 1176.76C491.193 1183.19 533.079 1190.45 541.644 1191.79C556.801 1194.17 676.322 1217.98 603.577 1234.74C580.713 1240 547.211 1242.74 523.255 1244.53C498.668 1246.32 474.061 1247.83 449.44 1249.06C417.004 1250.42 207.029 1257.36 191.566 1245.63C191.065 1245.25 190.799 1244.82 190.472 1244.3C192.314 1236.9 221.185 1232.74 228.564 1229.74C229.945 1229.76 231.642 1229.49 233.038 1229.31L233.744 1228.24C233.518 1209.74 202.368 1205.7 189.117 1211.07C183.711 1213.27 177.876 1215.1 172.268 1216.75C168.757 1216.84 163.961 1216.21 160.368 1215.85C160.362 1217.34 160.29 1217.85 160.045 1219.32C157.027 1221.09 66.5991 1220.36 55.8619 1220.09C56.3034 1216.25 56.8766 1213.32 57.6399 1209.57C56.4687 1208.52 54.9775 1207.33 54.1541 1205.98C53.2686 1204.52 53.3031 1202.43 53.7504 1200.84C60.836 1175.77 169.973 1153.08 195.839 1143.98C202.116 1141.77 208.123 1138.78 213.862 1135.43C213.665 1134.65 213.455 1133.87 213.23 1133.1C208.413 1116.58 200.556 1112.7 186.401 1105.23C182.948 1103.41 182.203 1105.75 178.597 1103.74Z"/><path fill="#0F162A" d="M57.6399 1209.57C68.3716 1184.51 106.291 1180.93 129.16 1189.15C144.258 1194.58 154.153 1200.25 160.368 1215.85C160.362 1217.34 160.29 1217.85 160.045 1219.32C157.027 1221.09 66.5991 1220.36 55.8619 1220.09C56.3034 1216.25 56.8766 1213.32 57.6399 1209.57Z"/><path fill="#0F162A" d="M563.409 1131.91C564.573 1130.48 565.692 1129.01 566.766 1127.51C571.255 1130.29 578.64 1170.42 580.067 1178.36C573.223 1169 564.466 1158.36 553.991 1152.87C558.739 1158.1 569.105 1169.23 570.603 1175.85L570.348 1177.01C568.539 1177.43 560.046 1177.56 558.421 1177.49C550.853 1177.19 491.328 1178.74 489.181 1176.76C494.719 1153.92 507.932 1141.02 529.92 1133C534.122 1131.46 536.132 1132.88 538.176 1130.8C541.931 1130.32 542.699 1130.26 546.408 1130.84C547.691 1131.05 548.445 1131.28 549.717 1130.97C553.02 1130.28 552.727 1130.22 556.297 1131.78C557.48 1132.14 558.458 1132.55 559.674 1132.44C561.253 1132.46 562.087 1132.65 563.409 1131.91Z"/><path fill="#0F162A" d="M172.268 1216.75C177.876 1215.1 183.711 1213.27 189.117 1211.07C202.368 1205.7 233.518 1209.74 233.744 1228.24L233.038 1229.31C231.642 1229.49 229.945 1229.76 228.564 1229.74C220.597 1227.67 173.392 1229.1 162.168 1229.12C163.856 1222.03 166.095 1220.58 172.268 1216.75Z"/><path fill="#9CA39F" d="M711.626 1263.65C712.973 1264.75 713.336 1266.06 714.057 1267.67C719.923 1280.77 724.246 1283.23 737.533 1287.94C722.292 1293.79 718.346 1297.3 712.313 1312.43C711.135 1311.42 710.966 1310.45 710.311 1309.01C704.035 1295.19 700.341 1293.05 686.389 1288.02C701.55 1282.52 705.831 1278.47 711.626 1263.65Z"/><path fill="#9CA39F" d="M721.791 1167.88C723.657 1169.06 726.862 1177.77 729.043 1180.27C733.352 1185.22 738.98 1187.12 744.895 1188.84C731.397 1193.75 727.917 1196.64 722.614 1209.87C721.549 1209.17 720.392 1206.9 719.912 1205.75C715.352 1194.84 710.431 1192.96 699.412 1189.36C701.253 1188.64 703.083 1187.89 704.9 1187.11C715.513 1182.49 717.835 1177.94 721.791 1167.88Z"/><path fill="#0F162A" d="M622.054 1163.1C621.952 1166.26 628.773 1170.5 626.62 1176.46C624.629 1178.12 624.967 1177.59 621.785 1177.66L612.042 1177.64C614.463 1173.19 618.672 1166.74 622.054 1163.1Z"/><path fill="#163235" d="M0 640.861C23.6199 635.403 63.082 635.78 87.3264 636.359C194.655 638.919 301.875 663.378 408.93 663.952C474.842 664.306 546.026 657.627 611.467 649.839C628.97 647.787 646.455 645.596 663.923 643.266C697.411 638.786 737.59 631.307 768 650.099L768 691.304L707.517 691.287C700.283 691.284 683.585 690.866 677.394 691.551L674.792 690.761C657.265 691.639 634.338 690.964 616.341 690.961L505.665 690.898L470.305 690.848C466.22 690.836 450.051 690.02 447.686 692.113C440.548 691.834 431.472 691.837 424.683 690.35C416.435 689.824 406.148 690.974 397.781 691.069C385.83 691.203 373.872 691.193 361.921 691.2C309.357 690.95 256.792 691.201 204.232 691.953C187.178 692.251 163.072 695 147.879 694.206C153.773 693.026 167.282 693.375 174.465 692.714C166.214 691.596 156.189 691.943 147.757 691.955L108.894 692.01L36.6535 692C32.5117 691.999 4.94594 691.459 2.57977 692.592C0.734962 696.038 3.27258 696.37 1.28902 698.574L0 698.37L0 640.861Z"/><path fill="#9CA39F" d="M424.683 690.35L613.863 690.341C621.987 690.343 668.843 689.17 674.792 690.761C657.265 691.639 634.338 690.964 616.341 690.961L505.665 690.898L470.305 690.848C466.22 690.836 450.051 690.02 447.686 692.113C440.548 691.834 431.472 691.837 424.683 690.35Z"/><defs><linearGradient id="gradient_3" gradientUnits="userSpaceOnUse" x1="540.14935" y1="687.18591" x2="546.79376" y2="844.6319"><stop offset="0" stop-color="#BAB9A2"/><stop offset="1" stop-color="#A9ABA6"/></linearGradient></defs><path fill="url(#gradient_3)" d="M447.686 692.113C450.051 690.02 466.22 690.836 470.305 690.848L505.665 690.898L616.341 690.961C634.338 690.964 657.265 691.639 674.792 690.761L677.394 691.551C679.289 692.763 680.761 693.374 681.57 695.39C678.581 706.631 601.576 707.109 592.777 714.473C595.818 724.131 698.784 717.38 702.65 727.325C696.739 735.244 605.331 737.035 592.26 739.284C576.301 742.029 520.015 740.382 506.763 747.017L506.447 747.866C511.507 751.371 530.548 751.685 537.242 752.256C565.436 754.658 671.815 759.402 690.912 769.511C692.53 770.368 692.87 771.102 693.481 772.712C688.403 783.551 600.728 784.725 590.574 797.445C590.448 798.386 590.17 798.938 590.751 799.753C596.188 807.385 674.9 816.589 689.404 818.815C681.844 826.988 677.715 832.333 672.532 842.302C664.622 832.512 655.502 826.015 642.544 824.727C639.324 824.385 636.073 824.475 632.877 824.992C626.008 826.179 622.952 827.596 617.035 830.862C611.79 830.659 606.197 830.775 600.942 831.054C586.235 831.837 571.015 831.571 556.379 832.872L555.639 834.574L554.385 833.36L554.031 833.347C551.864 832.603 546.92 832.868 544.398 832.882C545.112 828.598 545.905 824.264 546.333 819.947L544.767 819.644L544.332 820.438C537.639 820.42 530.673 820.026 523.965 819.743L522.22 816.757C522.182 816.058 520.99 812.666 520.698 811.775L519.241 811.456L520.335 810.987L519.17 810.847L519.195 810.213C519.183 812.849 520.853 817.023 521.75 819.666C509.965 819.107 447.444 817.212 443.102 811.169L443.571 809.887C451.782 804.222 492.239 800.973 504.916 798.744C513.856 797.427 521.355 796.324 529.896 793.405C510.184 786.375 468.229 788.452 446.185 784.293C444.48 783.972 443.689 783.468 442.87 782.142C448.596 776.11 534.867 775.849 543.253 768.961L542.947 767.868C534.147 761.987 445.102 757.28 428.796 755.33C416.618 754.1 404.325 752.579 392.307 750.254C389.131 749.639 380.604 747.506 381.956 743.16C392.608 732.991 464.877 731.595 482.64 729.981C487.617 729.529 503.954 729.132 508.101 727.341C506.508 725.309 501.237 724.894 497.921 722.234C497.348 717.336 515.404 718.849 518.616 714.657C512.804 708.353 395.421 713.197 389.322 706.362C392.414 702.726 412.186 702.397 417.586 701.921C438.732 700.055 461.465 700.898 482.243 696.608C473.318 693.495 457.485 692.817 447.686 692.113Z"/><path fill="#4B5D77" d="M546.647 819.886C549.636 822.194 610.493 822.77 619.812 824.365C621.779 824.701 630.308 824.953 632.877 824.992C626.008 826.179 622.952 827.596 617.035 830.862C611.79 830.659 606.197 830.775 600.942 831.054C586.235 831.837 571.015 831.571 556.379 832.872L555.639 834.574L554.385 833.36L554.031 833.347C551.864 832.603 546.92 832.868 544.398 832.882C545.112 828.598 545.905 824.264 546.333 819.947L546.647 819.886Z"/><path fill="#2F3E5B" d="M554.385 833.36C555.219 831.311 555.723 829.662 557.319 828.096C557.874 829.633 557.01 830.964 556.379 832.872L555.639 834.574L554.385 833.36Z"/><path fill="#163235" d="M544.767 819.644C546.386 814.568 547.864 809.552 550.019 804.678C549.042 809.779 547.917 814.85 546.647 819.886L546.333 819.947L544.767 819.644Z"/><path fill="#0F162A" d="M760.263 799.766C762.576 800.506 765.956 801.462 768 802.551L768 888.824C751.142 888.926 732.852 887.944 715.892 887.668C698.746 887.389 680.628 887.67 663.609 886.738C671.152 863.826 691.897 861.611 712.782 861.251L712.799 860.885C711.168 858.74 709.296 848.963 709.462 846.271C711.112 819.531 746.782 817.249 766.031 817.366C765.987 812.546 766.531 808.123 765.911 803.282C764.582 801.511 762.628 801.384 760.13 800.55L760.263 799.766Z"/><path fill="#163235" d="M567.952 1123.94C566.912 1119.54 580.324 1080.16 583.445 1075.47C586.384 1073.25 623.921 1071.64 631.106 1070.87C636.011 1070.35 657.331 1068.54 660.858 1068.99C653.814 1081.84 650.492 1090 646.841 1104.09C627.306 1097.86 607.996 1097.7 589.397 1107.27C583.828 1110.16 578.674 1113.8 574.074 1118.07C572.614 1119.44 569.298 1122.93 567.952 1123.94Z"/><path fill="#9CA39F" d="M507.233 877.62C499.006 876.893 440.326 870.19 438.44 865.506C444.144 858.76 500.604 859.845 511.03 853.02C508.858 846.063 448.995 846.45 439.707 840.429L439.625 839.539C445.966 834.949 515.512 833.457 525.449 833.318C526.765 837.487 531.875 862.281 530.648 865.408C527.471 863.715 521.115 846.959 511.971 839.726C517.657 848.603 522.477 857.051 525.739 867.166C517.373 869.818 513.871 871.427 507.233 877.62Z"/><path fill="#3A4B67" d="M235.444 848.222C236.162 843.952 244.742 807.809 244.9 808.074L243.818 809.207C243.183 807.262 244.423 805.661 245.568 804.024L247.003 803.892C247.673 807.238 240.676 822.698 243.703 823.341C254.368 825.608 321.836 825.861 326.056 833.102C321.698 840.285 260.626 845.496 249.897 846.782C248.169 846.99 247.077 848.017 246.044 849.542C244.737 853.013 239.737 863.759 239.125 866.504C239.795 866.694 239.727 866.804 240.255 866.673L239.3 868.031L238.423 867.798C236.854 859.683 253.241 838.161 253.604 834.542L252.931 834.272C250.494 838.164 246.348 843.151 243.41 846.881C240.733 847.3 238.104 847.701 235.444 848.222Z"/><path fill="#9CA39F" d="M556.379 832.872C571.015 831.571 586.235 831.837 600.942 831.054C606.197 830.775 611.79 830.659 617.035 830.862C609.188 836.63 606.063 840.32 601.8 849.222C578.247 852.524 558.785 842.167 546.151 870.968C548.174 853.898 551.896 848.952 555.639 834.574L556.379 832.872Z"/><path fill="#4B5D77" d="M240.255 866.673C240.322 866.591 240.387 866.506 240.458 866.426C250.126 855.468 265.74 870.622 267.878 870.194C271.638 869.442 272.769 865.144 281.575 864.759C295.041 864.172 297.623 871.719 305.927 879.193C307.22 880.356 328.647 880.362 332.364 880.485C367.269 881.64 402.322 881.471 437.252 881.991C448.93 882.165 460.689 882.566 472.37 882.909C477.449 883.058 482.741 883.638 487.796 883.368C491.49 883.171 489.625 882.001 491.7 879.665C494.247 878.953 493.328 878.845 495.401 879.678C496.022 881.601 496.004 882.231 497.571 883.277C500.928 883.912 504.141 882.497 505.207 879.108C502.833 878.758 499.922 878.042 497.583 877.431C489.136 875.224 438.133 872.818 436.507 865.229C438.711 861.668 440.42 862.666 443.849 861.664C452.161 859.235 505.205 856.645 509.027 852.568C497.845 846.829 444.374 847.359 437.472 840.3L437.568 839.179C444.734 834.222 512.277 831.561 522.536 832.666L524.216 831.298C523.257 827.042 522.524 824.962 521.02 820.965C509.396 818.712 445.576 820.18 441.374 811.015C444.19 804.316 499.628 796.889 504.916 798.744C492.239 800.973 451.782 804.222 443.571 809.887L443.102 811.169C447.444 817.212 509.965 819.107 521.75 819.666C520.853 817.023 519.183 812.849 519.195 810.213L519.17 810.847L520.335 810.987L519.241 811.456L520.698 811.775C520.99 812.666 522.182 816.058 522.22 816.757C521.417 820.137 524.426 829.356 525.449 833.318C515.512 833.457 445.966 834.949 439.625 839.539L439.707 840.429C448.995 846.45 508.858 846.063 511.03 853.02C500.604 859.845 444.144 858.76 438.44 865.506C440.326 870.19 499.006 876.893 507.233 877.62C505.616 879.98 504.542 882.017 503.186 884.537L305.185 880.871C296.052 866.837 280.492 858.966 267.055 872.744C258.589 863.072 251.686 861.778 240.255 866.673Z"/><path fill="#163235" d="M546.408 1130.84C543.824 1122.97 541.718 1111.83 539.185 1103.39C537.717 1098.5 532.981 1082.8 532.525 1078.69C534.118 1076.61 551.884 1076.1 554.788 1077.18C555.501 1078.6 549.583 1123.81 549.717 1130.97C548.445 1131.28 547.691 1131.05 546.408 1130.84Z"/><path fill="#163235" d="M559.168 1075.64C566.398 1075.29 574.757 1074.69 581.945 1074.69C571.058 1094.65 565.704 1111.05 559.674 1132.44C558.458 1132.55 557.48 1132.14 556.297 1131.78C556.671 1119.56 557.168 1107.34 557.787 1095.13C558.139 1088.97 559.139 1081.56 559.168 1075.64Z"/><path fill="#163235" d="M0 756.876C5.71136 762.484 9.62091 766.58 14.8037 772.605L24.6904 774.768L24.2675 769.459L24.431 769.89C25.1105 771.649 25.446 772.285 26.413 773.891C32.534 776.568 38.9347 778.284 45.1524 780.985C69.1797 791.426 99.8052 813.522 98.7843 842.96C113.827 842.817 128.24 844.153 139.598 855.441C140.389 856.227 141.424 856.977 141.587 857.978C137.257 855.064 133.113 851.716 128.813 848.893C126.829 847.853 119.41 846.784 118.043 845.507C115.188 842.838 98.1163 845.726 98.0089 843.254C96.8199 815.886 75.8579 799.79 53.1589 787.222C39.2546 779.524 20.1453 772.845 1.96923 773.062C2.02072 782.936 2.71431 875.345 1.38522 878.128L0 879.178L0 771.617L0 760.061L0 756.876Z"/><path fill="#2F3E5B" d="M-3.73126e-14 760.061C3.39323 764.068 6.70625 768.142 9.93711 772.281C6.80551 772.031 3.09199 771.636 0 771.617L0 760.061L-3.73126e-14 760.061Z"/><path fill="#4B5D77" d="M768 769.227L768 802.551C765.956 801.462 762.576 800.506 760.263 799.766C757.756 798.273 753.957 797.861 751.118 797.58C756.323 786.31 761.067 779.581 768 769.227Z"/><path fill="#4B5D77" d="M523.965 819.743C530.673 820.026 537.639 820.42 544.332 820.438C543.661 823.234 541.639 830.889 541.327 833.367C539.385 832.572 531.379 833.244 528.723 833.385C528.023 830.291 525.169 823.031 523.965 819.743Z"/><path fill="#9CA39F" d="M528.723 833.385C531.379 833.244 539.385 832.572 541.327 833.367C538.366 845.085 538.233 854.947 535.915 865.626C533.869 854.214 532.247 844.477 528.723 833.385Z"/><path fill="#9CA39F" d="M544.398 832.882C546.92 832.868 551.864 832.603 554.031 833.347C548.006 846.325 545.705 852.721 541.563 866.18C541.274 856.19 542.869 842.721 544.398 832.882Z"/><path fill="#4B5D77" d="M235.444 848.222C238.104 847.701 240.733 847.3 243.41 846.881C241.639 849.914 236.241 861.312 234.148 862.035C233.373 859.656 234.963 851.061 235.444 848.222Z"/><path fill="#2F3E5B" d="M84.0064 791.722C77.4449 787.761 71.67 783.485 64.6979 779.942C61.951 778.547 56.3636 777.614 55.038 776.54C55.3846 773.058 62.342 760.685 64.4068 757.25L64.902 757.179C64.7498 758.744 64.5733 758.899 63.7863 760.309C65.2627 761.593 265.938 766.5 285.538 766.5C290.579 766.451 321.768 768.513 324.343 770.87C325.446 771.879 325.472 772.237 325.671 773.633C320.705 780.077 244.764 783.227 232.701 783.794L146.345 787.7C131.776 788.334 97.284 789.312 84.0064 791.722Z"/><path fill="#3A4B67" d="M84.0064 791.722C91.9274 794.115 108.211 815.676 109.533 815.8C139.949 818.637 170.735 819.71 201.235 821.544C201.706 821.572 205.8 820.282 205.773 820.256C208.803 823.109 214.851 825.017 217.258 820.199C217.483 817.055 214.137 805.019 212.648 802.395L212.924 801.019C214.556 800.694 213.752 800.623 215.381 801.469C215.314 802.606 215.186 802.579 214.5 803.525C216.135 811.42 225.039 846.272 222.194 852.577L221.006 852.718C216.707 843.441 210.369 827.933 204.843 820.062C208.415 830.509 213.227 839.533 215.173 850.463C213.149 853.506 209.421 852.235 205.927 853.581C202.934 854.734 200.239 858.082 197.486 858.078C195.915 856.907 195.761 855.543 195.153 853.607C181.905 822.778 144.981 805.139 118.175 833.003C107.164 813.648 100.666 806.405 84.0064 791.722Z"/><path fill="#4B5D77" d="M195.153 853.607C197.651 851.201 211.582 849.96 215.173 850.463C213.149 853.506 209.421 852.235 205.927 853.581C202.934 854.734 200.239 858.082 197.486 858.078C195.915 856.907 195.761 855.543 195.153 853.607Z"/><path fill="#0F162A" d="M622.08 862.378C635.974 858.736 653.768 877.18 648.642 885.504C646.117 887.874 630.66 886.87 626.38 886.809C616.749 886.668 606.948 886.225 597.215 886.073C598.836 879.451 599.713 876.876 604.341 871.537C607.807 867.538 616.886 862.597 622.08 862.378Z"/><path fill="#0F162A" d="M180.628 859.144C188.631 857.345 222.841 865.476 218.324 879.07C215.415 881.089 205.029 879.888 200.959 879.647C194.66 879.601 163.339 879.96 160.493 878.01C159.057 874.631 161.571 869.407 163.698 866.734C167.62 861.804 174.595 859.808 180.628 859.144Z"/><path fill="#9CA39F" d="M724.776 926.962C725.978 927.84 726.556 929.297 727.209 930.666C731.774 940.242 734.827 941.109 744.113 945.156C732.454 950.111 730.478 951.781 725.708 963.519C724.823 962.801 724.013 960.672 723.431 959.588C718.081 949.634 716.349 949.047 706.058 945.227C717.467 940.199 720.145 938.619 724.776 926.962Z"/><path fill="#3A4B67" d="M226.965 849.53C225.771 839.947 223.799 830.476 221.07 821.211C219.425 815.788 217.196 810.528 215.894 805.06L216.694 805.102C218.822 810.085 219.925 816.084 222.202 821.185C223.626 824.374 234.76 823.918 237.118 822.664C240.314 819.692 238.224 814.475 242.504 811.974C242.444 814.012 239.414 819.275 238.515 822.017C235.748 830.508 233.399 839.13 231.476 847.852L226.965 849.53Z"/><path fill="#2F3E5B" d="M50.6322 751.585C53.0351 749.995 63.016 749.348 66.2841 749.074C64.3803 751.558 61.2608 755.509 59.9363 758.206L60.1348 758.528C59.4509 762.153 51.5957 774.115 47.363 775.047C45.3016 772.738 47.976 751.838 49.9924 750.004L50.6322 751.585Z"/><path fill="#3A4B67" d="M50.6322 751.585C53.0351 749.995 63.016 749.348 66.2841 749.074C64.3803 751.558 61.2608 755.509 59.9363 758.206C57.0483 761.227 53.8031 762.313 50.0932 759.742C48.6983 756.552 49.3724 754.91 50.6322 751.585Z"/><path fill="#2F3E5B" d="M36.0256 755.981L36.8438 753.977C39.3872 751.794 42.3115 750.993 44.9751 753.282C45.4325 756.581 41.695 772.72 39.8047 774.063C37.8687 772.044 38.6856 767.386 37.9984 764.721C37.2988 762.008 35.276 758.899 36.0256 755.981Z"/><path fill="#3A4B67" d="M36.0256 755.981L36.8438 753.977C39.3872 751.794 42.3115 750.993 44.9751 753.282C43.7891 757.026 44.4221 756.866 41.9024 759.283C39.4354 759.865 40.4825 759.895 37.8245 758.819L36.0256 755.981Z"/><path fill="#4B5D77" d="M226.965 849.53L231.476 847.852C230.983 850.462 230.611 853.942 229.062 855.97L228.154 855.687C227.086 853.115 227.136 852.285 226.965 849.53Z"/></svg>